<svg width="55" height="58" viewBox="0 0 55 58" fill="none" xmlns="http://www.w3.org/2000/svg">
<circle cx="27.5" cy="30.5" r="27.5" fill="white"/>
<path d="M12.288 44.144C11.968 44.144 11.744 44.032 11.616 43.808C11.488 43.584 11.424 43.344 11.424 43.088C11.456 42.544 11.584 42.24 11.808 42.176C12.032 42.112 12.304 42.08 12.624 42.08C13.488 42.08 14.144 41.904 14.592 41.552C15.04 41.2 15.392 40.736 15.648 40.16C15.936 39.584 16.208 38.992 16.464 38.384L24.864 18.512C25.184 17.744 25.248 17.168 25.056 16.784C24.864 16.368 24.544 16.08 24.096 15.92C23.648 15.728 23.152 15.584 22.608 15.488C22.128 15.392 21.808 15.312 21.648 15.248C21.488 15.152 21.408 14.864 21.408 14.384C21.408 13.84 21.6 13.552 21.984 13.52C22.368 13.456 22.816 13.424 23.328 13.424C24.64 13.424 25.76 13.552 26.688 13.808C27.616 14.064 28.416 14.56 29.088 15.296C29.76 16 30.384 17.072 30.96 18.512L39.024 38.384C39.248 38.928 39.488 39.488 39.744 40.064C40 40.64 40.336 41.12 40.752 41.504C41.2 41.856 41.76 42.048 42.432 42.08C42.784 42.08 43.056 42.112 43.248 42.176C43.472 42.24 43.6 42.544 43.632 43.088C43.632 43.344 43.552 43.584 43.392 43.808C43.264 44.032 43.056 44.144 42.768 44.144C41.744 44.08 40.848 44.032 40.08 44C39.312 44 38.448 44 37.488 44C35.6 44 33.616 44.048 31.536 44.144C31.216 44.144 30.992 44.032 30.864 43.808C30.736 43.584 30.672 43.344 30.672 43.088C30.704 42.544 30.832 42.24 31.056 42.176C31.28 42.112 31.552 42.08 31.872 42.08C33.44 42.08 34.288 41.792 34.416 41.216C34.576 40.64 34.432 39.696 33.984 38.384L32.352 34.4H20.496C20.016 35.616 19.664 36.496 19.44 37.04C19.248 37.584 19.12 37.936 19.056 38.096C19.024 38.256 18.992 38.352 18.96 38.384C18.608 39.472 18.416 40.288 18.384 40.832C18.384 41.344 18.64 41.68 19.152 41.84C19.696 42 20.592 42.08 21.84 42.08C22.192 42.08 22.464 42.112 22.656 42.176C22.88 42.24 23.008 42.544 23.04 43.088C23.04 43.344 22.96 43.584 22.8 43.808C22.672 44.032 22.464 44.144 22.176 44.144C21.152 44.08 20.256 44.032 19.488 44C18.752 44 17.904 44 16.944 44C16.304 44 15.76 44 15.312 44C14.896 44.032 14.464 44.048 14.016 44.048C13.568 44.08 12.992 44.112 12.288 44.144ZM21.408 32.336H31.488L26.64 20H26.496L21.408 32.336Z" fill="#AD8B73"/>
</svg>
