<svg width="146" height="76" viewBox="0 0 146 76" fill="none" xmlns="http://www.w3.org/2000/svg">
<path d="M1.318 48.159C0.964667 48.159 0.717333 48.0353 0.576 47.788C0.434667 47.5407 0.364 47.2757 0.364 46.993C0.399333 46.3923 0.540667 46.0567 0.788 45.986C1.03533 45.9153 1.33567 45.88 1.689 45.88C2.643 45.88 3.36733 45.6857 3.862 45.297C4.35667 44.9083 4.74533 44.396 5.028 43.76C5.346 43.124 5.64633 42.4703 5.929 41.799L15.204 19.857C15.5573 19.009 15.628 18.373 15.416 17.949C15.204 17.4897 14.8507 17.1717 14.356 16.995C13.8613 16.783 13.3137 16.624 12.713 16.518C12.183 16.412 11.8297 16.3237 11.653 16.253C11.4763 16.147 11.388 15.829 11.388 15.299C11.388 14.6983 11.6 14.3803 12.024 14.345C12.448 14.2743 12.9427 14.239 13.508 14.239C14.9567 14.239 16.1933 14.3803 17.218 14.663C18.2427 14.9457 19.126 15.4933 19.868 16.306C20.61 17.0833 21.299 18.267 21.935 19.857L30.839 41.799C31.0863 42.3997 31.3513 43.018 31.634 43.654C31.9167 44.29 32.2877 44.82 32.747 45.244C33.2417 45.6327 33.86 45.8447 34.602 45.88C34.9907 45.88 35.291 45.9153 35.503 45.986C35.7503 46.0567 35.8917 46.3923 35.927 46.993C35.927 47.2757 35.8387 47.5407 35.662 47.788C35.5207 48.0353 35.291 48.159 34.973 48.159C33.8423 48.0883 32.853 48.0353 32.005 48C31.157 48 30.203 48 29.143 48C27.0583 48 24.8677 48.053 22.571 48.159C22.2177 48.159 21.9703 48.0353 21.829 47.788C21.6877 47.5407 21.617 47.2757 21.617 46.993C21.6523 46.3923 21.7937 46.0567 22.041 45.986C22.2883 45.9153 22.5887 45.88 22.942 45.88C24.6733 45.88 25.6097 45.562 25.751 44.926C25.9277 44.29 25.7687 43.2477 25.274 41.799L23.472 37.4H10.381C9.851 38.7427 9.46233 39.7143 9.215 40.315C9.003 40.9157 8.86167 41.3043 8.791 41.481C8.75567 41.6577 8.72033 41.7637 8.685 41.799C8.29633 43.0003 8.08433 43.9013 8.049 44.502C8.049 45.0673 8.33167 45.4383 8.897 45.615C9.49767 45.7917 10.487 45.88 11.865 45.88C12.2537 45.88 12.554 45.9153 12.766 45.986C13.0133 46.0567 13.1547 46.3923 13.19 46.993C13.19 47.2757 13.1017 47.5407 12.925 47.788C12.7837 48.0353 12.554 48.159 12.236 48.159C11.1053 48.0883 10.116 48.0353 9.268 48C8.45533 48 7.519 48 6.459 48C5.75233 48 5.15167 48 4.657 48C4.19767 48.0353 3.72067 48.053 3.226 48.053C2.73133 48.0883 2.09533 48.1237 1.318 48.159ZM11.388 35.121H22.518L17.165 21.5H17.006L11.388 35.121ZM39.8639 48.159C39.5106 48.159 39.2632 48.0353 39.1219 47.788C38.9806 47.5407 38.9099 47.2757 38.9099 46.993C38.9452 46.3923 39.0866 46.0567 39.3339 45.986C39.5812 45.9153 39.8816 45.88 40.2349 45.88C41.3656 45.88 42.1606 45.6857 42.6199 45.297C43.0792 44.873 43.3619 44.3607 43.4679 43.76C43.6092 43.124 43.6799 42.4703 43.6799 41.799V20.758C43.6799 20.0867 43.6092 19.4507 43.4679 18.85C43.3619 18.214 43.0792 17.7017 42.6199 17.313C42.1606 16.889 41.3656 16.677 40.2349 16.677C39.8816 16.677 39.5812 16.6417 39.3339 16.571C39.0866 16.5003 38.9452 16.1647 38.9099 15.564C38.9099 15.2813 38.9806 15.0163 39.1219 14.769C39.2632 14.5217 39.5106 14.398 39.8639 14.398C40.9946 14.4333 42.0546 14.4687 43.0439 14.504C44.0332 14.5393 45.0579 14.557 46.1179 14.557H53.5909C55.6402 14.557 57.2479 14.716 58.4139 15.034C59.6152 15.3167 60.6576 15.7407 61.5409 16.306C62.4596 16.9067 63.1839 17.737 63.7139 18.797C64.2439 19.8217 64.5089 20.9523 64.5089 22.189C64.5089 23.779 64.1379 25.1217 63.3959 26.217C62.6539 27.277 61.7176 28.125 60.5869 28.761C59.4916 29.3617 58.4139 29.7857 57.3539 30.033V30.192C59.2266 30.1567 60.8872 30.4923 62.3359 31.199C63.7846 31.9057 64.9329 32.842 65.7809 34.008C66.6289 35.174 67.0706 36.446 67.1059 37.824C67.1766 39.838 66.7526 41.4987 65.8339 42.806C64.9152 44.1133 63.7139 45.1557 62.2299 45.933C60.7812 46.7103 59.1912 47.258 57.4599 47.576C55.7639 47.894 54.1209 48.053 52.5309 48.053L46.1709 48C45.1109 48 44.0686 48 43.0439 48C42.0546 48.0353 40.9946 48.0883 39.8639 48.159ZM48.9269 29.132H51.1529C51.8596 29.132 52.6546 29.0967 53.5379 29.026C54.4212 28.9553 55.2692 28.7433 56.0819 28.39C56.8946 28.0013 57.5482 27.383 58.0429 26.535C58.5729 25.6517 58.8379 24.415 58.8379 22.825C58.8379 20.9523 58.3786 19.433 57.4599 18.267C56.5766 17.101 54.9689 16.518 52.6369 16.518H48.9269V29.132ZM52.7429 45.933C54.3329 45.8977 55.7816 45.6327 57.0889 45.138C58.3962 44.6433 59.4386 43.813 60.2159 42.647C60.9932 41.481 61.3819 39.8733 61.3819 37.824C61.2759 36.6933 60.8872 35.6333 60.2159 34.644C59.5799 33.6547 58.5199 32.842 57.0359 32.206C55.5872 31.57 53.6086 31.252 51.0999 31.252H48.9269V41.799C48.9269 43.5657 49.1919 44.6963 49.7219 45.191C50.2519 45.6857 51.2589 45.933 52.7429 45.933ZM75.4443 48.159C75.091 48.159 74.8436 48.0353 74.7023 47.788C74.561 47.5407 74.4903 47.2757 74.4903 46.993C74.5256 46.3923 74.667 46.0567 74.9143 45.986C75.1616 45.9153 75.462 45.88 75.8153 45.88C76.946 45.88 77.741 45.6857 78.2003 45.297C78.6596 44.873 78.9423 44.3607 79.0483 43.76C79.1896 43.124 79.2603 42.4703 79.2603 41.799V20.758C79.2603 20.0867 79.1896 19.4507 79.0483 18.85C78.9423 18.214 78.6596 17.7017 78.2003 17.313C77.741 16.889 76.946 16.677 75.8153 16.677C75.462 16.677 75.1616 16.6417 74.9143 16.571C74.667 16.5003 74.5256 16.1647 74.4903 15.564C74.4903 15.2813 74.561 15.0163 74.7023 14.769C74.8436 14.5217 75.091 14.398 75.4443 14.398C76.575 14.4333 77.635 14.4687 78.6243 14.504C79.6136 14.5393 80.6383 14.557 81.6983 14.557H89.1713C91.2206 14.557 92.8283 14.716 93.9943 15.034C95.1956 15.3167 96.238 15.7407 97.1213 16.306C98.04 16.9067 98.7643 17.737 99.2943 18.797C99.8243 19.8217 100.089 20.9523 100.089 22.189C100.089 23.779 99.7183 25.1217 98.9763 26.217C98.2343 27.277 97.298 28.125 96.1673 28.761C95.072 29.3617 93.9943 29.7857 92.9343 30.033V30.192C94.807 30.1567 96.4676 30.4923 97.9163 31.199C99.365 31.9057 100.513 32.842 101.361 34.008C102.209 35.174 102.651 36.446 102.686 37.824C102.757 39.838 102.333 41.4987 101.414 42.806C100.496 44.1133 99.2943 45.1557 97.8103 45.933C96.3616 46.7103 94.7716 47.258 93.0403 47.576C91.3443 47.894 89.7013 48.053 88.1113 48.053L81.7513 48C80.6913 48 79.649 48 78.6243 48C77.635 48.0353 76.575 48.0883 75.4443 48.159ZM84.5073 29.132H86.7333C87.44 29.132 88.235 29.0967 89.1183 29.026C90.0016 28.9553 90.8496 28.7433 91.6623 28.39C92.475 28.0013 93.1286 27.383 93.6233 26.535C94.1533 25.6517 94.4183 24.415 94.4183 22.825C94.4183 20.9523 93.959 19.433 93.0403 18.267C92.157 17.101 90.5493 16.518 88.2173 16.518H84.5073V29.132ZM88.3233 45.933C89.9133 45.8977 91.362 45.6327 92.6693 45.138C93.9766 44.6433 95.019 43.813 95.7963 42.647C96.5736 41.481 96.9623 39.8733 96.9623 37.824C96.8563 36.6933 96.4676 35.6333 95.7963 34.644C95.1603 33.6547 94.1003 32.842 92.6163 32.206C91.1676 31.57 89.189 31.252 86.6803 31.252H84.5073V41.799C84.5073 43.5657 84.7723 44.6963 85.3023 45.191C85.8323 45.6857 86.8393 45.933 88.3233 45.933ZM108.163 48.159C107.809 48.159 107.562 48.0353 107.421 47.788C107.279 47.5407 107.209 47.2757 107.209 46.993C107.244 46.3923 107.385 46.0567 107.633 45.986C107.88 45.9153 108.18 45.88 108.534 45.88C109.488 45.88 110.212 45.6857 110.707 45.297C111.201 44.9083 111.59 44.396 111.873 43.76C112.191 43.124 112.491 42.4703 112.774 41.799L122.049 19.857C122.402 19.009 122.473 18.373 122.261 17.949C122.049 17.4897 121.695 17.1717 121.201 16.995C120.706 16.783 120.158 16.624 119.558 16.518C119.028 16.412 118.674 16.3237 118.498 16.253C118.321 16.147 118.233 15.829 118.233 15.299C118.233 14.6983 118.445 14.3803 118.869 14.345C119.293 14.2743 119.787 14.239 120.353 14.239C121.801 14.239 123.038 14.3803 124.063 14.663C125.087 14.9457 125.971 15.4933 126.713 16.306C127.455 17.0833 128.144 18.267 128.78 19.857L137.684 41.799C137.931 42.3997 138.196 43.018 138.479 43.654C138.761 44.29 139.132 44.82 139.592 45.244C140.086 45.6327 140.705 45.8447 141.447 45.88C141.835 45.88 142.136 45.9153 142.348 45.986C142.595 46.0567 142.736 46.3923 142.772 46.993C142.772 47.2757 142.683 47.5407 142.507 47.788C142.365 48.0353 142.136 48.159 141.818 48.159C140.687 48.0883 139.698 48.0353 138.85 48C138.002 48 137.048 48 135.988 48C133.903 48 131.712 48.053 129.416 48.159C129.062 48.159 128.815 48.0353 128.674 47.788C128.532 47.5407 128.462 47.2757 128.462 46.993C128.497 46.3923 128.638 46.0567 128.886 45.986C129.133 45.9153 129.433 45.88 129.787 45.88C131.518 45.88 132.454 45.562 132.596 44.926C132.772 44.29 132.613 43.2477 132.119 41.799L130.317 37.4H117.226C116.696 38.7427 116.307 39.7143 116.06 40.315C115.848 40.9157 115.706 41.3043 115.636 41.481C115.6 41.6577 115.565 41.7637 115.53 41.799C115.141 43.0003 114.929 43.9013 114.894 44.502C114.894 45.0673 115.176 45.4383 115.742 45.615C116.342 45.7917 117.332 45.88 118.71 45.88C119.098 45.88 119.399 45.9153 119.611 45.986C119.858 46.0567 119.999 46.3923 120.035 46.993C120.035 47.2757 119.946 47.5407 119.77 47.788C119.628 48.0353 119.399 48.159 119.081 48.159C117.95 48.0883 116.961 48.0353 116.113 48C115.3 48 114.364 48 113.304 48C112.597 48 111.996 48 111.502 48C111.042 48.0353 110.565 48.053 110.071 48.053C109.576 48.0883 108.94 48.1237 108.163 48.159ZM118.233 35.121H129.363L124.01 21.5H123.851L118.233 35.121Z" fill="black"/>
<path d="M5.39453 72.7832V73H1.24023V72.7832H1.50391C1.73438 72.7832 1.91992 72.7422 2.06055 72.6602C2.16211 72.6055 2.24023 72.5117 2.29492 72.3789C2.33789 72.2852 2.35938 72.0391 2.35938 71.6406V66.4141C2.35938 66.0078 2.33789 65.7539 2.29492 65.6523C2.25195 65.5508 2.16406 65.4629 2.03125 65.3887C1.90234 65.3105 1.72656 65.2715 1.50391 65.2715H1.24023V65.0547H5.39453V65.2715H5.13086C4.90039 65.2715 4.71484 65.3125 4.57422 65.3945C4.47266 65.4492 4.39258 65.543 4.33398 65.6758C4.29102 65.7695 4.26953 66.0156 4.26953 66.4141V71.6406C4.26953 72.0469 4.29102 72.3008 4.33398 72.4023C4.38086 72.5039 4.46875 72.5938 4.59766 72.6719C4.73047 72.7461 4.9082 72.7832 5.13086 72.7832H5.39453ZM14.6751 64.873V67.6738H14.4583C14.1966 66.9082 13.804 66.3262 13.2805 65.9277C12.7571 65.5293 12.1848 65.3301 11.5638 65.3301C10.97 65.3301 10.4759 65.498 10.0813 65.834C9.6868 66.166 9.4075 66.6309 9.24344 67.2285C9.07938 67.8262 8.99734 68.4395 8.99734 69.0684C8.99734 69.8301 9.08719 70.498 9.26688 71.0723C9.44656 71.6465 9.73563 72.0684 10.1341 72.3379C10.5364 72.6074 11.013 72.7422 11.5638 72.7422C11.7552 72.7422 11.9505 72.7227 12.1497 72.6836C12.3528 72.6406 12.5598 72.5801 12.7708 72.502V70.8496C12.7708 70.5371 12.7493 70.3359 12.7063 70.2461C12.6634 70.1523 12.5735 70.0684 12.4368 69.9941C12.304 69.9199 12.1419 69.8828 11.9505 69.8828H11.7454V69.666H15.6067V69.8828C15.3138 69.9023 15.1087 69.9434 14.9915 70.0059C14.8782 70.0645 14.7903 70.1641 14.7278 70.3047C14.6927 70.3789 14.6751 70.5605 14.6751 70.8496V72.502C14.1673 72.7285 13.638 72.8984 13.0872 73.0117C12.5403 73.1289 11.972 73.1875 11.3821 73.1875C10.6282 73.1875 10.0013 73.0859 9.50125 72.8828C9.00516 72.6758 8.5657 72.4062 8.18289 72.0742C7.80398 71.7383 7.50711 71.3613 7.29227 70.9434C7.01883 70.4043 6.88211 69.8008 6.88211 69.1328C6.88211 67.9375 7.30203 66.9277 8.14188 66.1035C8.98172 65.2793 10.0384 64.8672 11.3118 64.8672C11.7063 64.8672 12.0618 64.8984 12.3782 64.9609C12.5501 64.9922 12.8274 65.082 13.2102 65.2305C13.597 65.375 13.8255 65.4473 13.8958 65.4473C14.0052 65.4473 14.1067 65.4082 14.2005 65.3301C14.2942 65.248 14.3802 65.0957 14.4583 64.873H14.6751ZM24.0318 70.2109L23.733 73H16.6783V72.7832H16.942C17.1724 72.7832 17.358 72.7422 17.4986 72.6602C17.6002 72.6055 17.6783 72.5117 17.733 72.3789C17.7759 72.2852 17.7974 72.0391 17.7974 71.6406V66.4141C17.7974 66.0078 17.7759 65.7539 17.733 65.6523C17.69 65.5508 17.6021 65.4629 17.4693 65.3887C17.3404 65.3105 17.1646 65.2715 16.942 65.2715H16.6783V65.0547H20.9146V65.2715H20.5689C20.3384 65.2715 20.1529 65.3125 20.0123 65.3945C19.9107 65.4492 19.8306 65.543 19.772 65.6758C19.7291 65.7695 19.7076 66.0156 19.7076 66.4141V71.4766C19.7076 71.8828 19.731 72.1426 19.7779 72.2559C19.8248 72.3652 19.9166 72.4473 20.0533 72.502C20.1509 72.5371 20.3873 72.5547 20.7623 72.5547H21.4244C21.8463 72.5547 22.1978 72.4805 22.4791 72.332C22.7603 72.1836 23.0025 71.9492 23.2056 71.6289C23.4127 71.3086 23.608 70.8359 23.7916 70.2109H24.0318ZM28.4491 65.5117V68.7461H28.6073C29.1112 68.7461 29.4764 68.5879 29.703 68.2715C29.9295 67.9551 30.0741 67.4883 30.1366 66.8711H30.3592V71.0312H30.1366C30.0897 70.5781 29.9901 70.207 29.8377 69.918C29.6893 69.6289 29.5155 69.4355 29.3162 69.3379C29.117 69.2363 28.828 69.1855 28.4491 69.1855V71.4238C28.4491 71.8613 28.4666 72.1289 28.5018 72.2266C28.5409 72.3242 28.6112 72.4043 28.7127 72.4668C28.8143 72.5293 28.9784 72.5605 29.2049 72.5605H29.6795C30.4217 72.5605 31.0155 72.3887 31.4608 72.0449C31.91 71.7012 32.2323 71.1777 32.4276 70.4746H32.6444L32.287 73H25.4198V72.7832H25.6834C25.9139 72.7832 26.0995 72.7422 26.2401 72.6602C26.3416 72.6055 26.4198 72.5117 26.4745 72.3789C26.5174 72.2852 26.5389 72.0391 26.5389 71.6406V66.4141C26.5389 66.0547 26.5291 65.834 26.5096 65.752C26.4705 65.6152 26.3983 65.5098 26.2928 65.4355C26.1444 65.3262 25.9412 65.2715 25.6834 65.2715H25.4198V65.0547H32.0702V67.4043H31.8475C31.7342 66.8301 31.5741 66.418 31.367 66.168C31.1639 65.918 30.8748 65.7344 30.4998 65.6172C30.2811 65.5469 29.8709 65.5117 29.2694 65.5117H28.4491ZM39.5402 64.873L39.6046 67.5215H39.3644C39.2511 66.8574 38.9718 66.3242 38.5265 65.9219C38.0851 65.5156 37.6066 65.3125 37.0909 65.3125C36.6925 65.3125 36.3761 65.4199 36.1417 65.6348C35.9113 65.8457 35.796 66.0898 35.796 66.3672C35.796 66.543 35.837 66.6992 35.9191 66.8359C36.0323 67.0195 36.214 67.2012 36.464 67.3809C36.6476 67.5098 37.0714 67.7383 37.7355 68.0664C38.6652 68.5234 39.2921 68.9551 39.6163 69.3613C39.9366 69.7676 40.0968 70.2324 40.0968 70.7559C40.0968 71.4199 39.837 71.9922 39.3175 72.4727C38.8019 72.9492 38.1456 73.1875 37.3488 73.1875C37.0988 73.1875 36.8624 73.1621 36.6398 73.1113C36.4171 73.0605 36.1378 72.9648 35.8019 72.8242C35.6144 72.7461 35.4601 72.707 35.339 72.707C35.2374 72.707 35.13 72.7461 35.0167 72.8242C34.9034 72.9023 34.8116 73.0215 34.7413 73.1816H34.5245V70.1816H34.7413C34.9132 71.0254 35.2433 71.6699 35.7316 72.1152C36.2238 72.5566 36.753 72.7773 37.3195 72.7773C37.757 72.7773 38.1046 72.6582 38.3624 72.4199C38.6241 72.1816 38.755 71.9043 38.755 71.5879C38.755 71.4004 38.7042 71.2188 38.6027 71.043C38.505 70.8672 38.3546 70.7012 38.1515 70.5449C37.9484 70.3848 37.589 70.1777 37.0734 69.9238C36.3507 69.5684 35.8312 69.2656 35.5148 69.0156C35.1984 68.7656 34.9542 68.4863 34.7823 68.1777C34.6144 67.8691 34.5304 67.5293 34.5304 67.1582C34.5304 66.5254 34.7628 65.9863 35.2277 65.541C35.6925 65.0957 36.2784 64.873 36.9855 64.873C37.2433 64.873 37.4933 64.9043 37.7355 64.9668C37.9191 65.0137 38.1417 65.1016 38.4034 65.2305C38.6691 65.3555 38.8546 65.418 38.9601 65.418C39.0616 65.418 39.1417 65.3867 39.2003 65.3242C39.2589 65.2617 39.3136 65.1113 39.3644 64.873H39.5402ZM45.6977 72.7832V73H41.5434V72.7832H41.807C42.0375 72.7832 42.223 72.7422 42.3637 72.6602C42.4652 72.6055 42.5434 72.5117 42.598 72.3789C42.641 72.2852 42.6625 72.0391 42.6625 71.6406V66.4141C42.6625 66.0078 42.641 65.7539 42.598 65.6523C42.5551 65.5508 42.4672 65.4629 42.3344 65.3887C42.2055 65.3105 42.0297 65.2715 41.807 65.2715H41.5434V65.0547H45.6977V65.2715H45.434C45.2035 65.2715 45.018 65.3125 44.8773 65.3945C44.7758 65.4492 44.6957 65.543 44.6371 65.6758C44.5941 65.7695 44.5727 66.0156 44.5727 66.4141V71.6406C44.5727 72.0469 44.5941 72.3008 44.6371 72.4023C44.684 72.5039 44.7719 72.5938 44.9008 72.6719C45.0336 72.7461 45.2113 72.7832 45.434 72.7832H45.6977ZM51.6911 70.7383H48.8845L48.5505 71.5117C48.4411 71.7695 48.3864 71.9824 48.3864 72.1504C48.3864 72.373 48.4762 72.5371 48.6559 72.6426C48.7614 72.7051 49.0212 72.752 49.4352 72.7832V73H46.7927V72.7832C47.0778 72.7402 47.3122 72.623 47.4958 72.4316C47.6794 72.2363 47.9059 71.8359 48.1755 71.2305L51.0173 64.8906H51.1286L53.9938 71.4062C54.2673 72.0234 54.4919 72.4121 54.6677 72.5723C54.8005 72.6934 54.988 72.7637 55.2302 72.7832V73H51.3864V72.7832H51.5446C51.8532 72.7832 52.07 72.7402 52.195 72.6543C52.2809 72.5918 52.3239 72.502 52.3239 72.3848C52.3239 72.3145 52.3122 72.2422 52.2887 72.168C52.2809 72.1328 52.2223 71.9863 52.113 71.7285L51.6911 70.7383ZM51.4919 70.3047L50.3083 67.5684L49.0895 70.3047H51.4919ZM62.4123 65.5117V68.7461H62.5705C63.0745 68.7461 63.4397 68.5879 63.6663 68.2715C63.8928 67.9551 64.0373 67.4883 64.0998 66.8711H64.3225V71.0312H64.0998C64.053 70.5781 63.9534 70.207 63.801 69.918C63.6526 69.6289 63.4788 69.4355 63.2795 69.3379C63.0803 69.2363 62.7913 69.1855 62.4123 69.1855V71.4238C62.4123 71.8613 62.4299 72.1289 62.4651 72.2266C62.5041 72.3242 62.5745 72.4043 62.676 72.4668C62.7776 72.5293 62.9416 72.5605 63.1682 72.5605H63.6428C64.385 72.5605 64.9788 72.3887 65.4241 72.0449C65.8733 71.7012 66.1955 71.1777 66.3909 70.4746H66.6077L66.2502 73H59.383V72.7832H59.6467C59.8772 72.7832 60.0627 72.7422 60.2034 72.6602C60.3049 72.6055 60.383 72.5117 60.4377 72.3789C60.4807 72.2852 60.5022 72.0391 60.5022 71.6406V66.4141C60.5022 66.0547 60.4924 65.834 60.4729 65.752C60.4338 65.6152 60.3616 65.5098 60.2561 65.4355C60.1077 65.3262 59.9045 65.2715 59.6467 65.2715H59.383V65.0547H66.0334V67.4043H65.8108C65.6975 66.8301 65.5373 66.418 65.3303 66.168C65.1272 65.918 64.8381 65.7344 64.4631 65.6172C64.2444 65.5469 63.8342 65.5117 63.2327 65.5117H62.4123ZM76.4097 65.0547V65.2715C76.1206 65.3184 75.8628 65.4727 75.6363 65.7344C75.4722 65.9297 75.2281 66.3887 74.9038 67.1113L72.1675 73.1816H71.9741L69.2495 66.8652C68.9214 66.1035 68.7007 65.6562 68.5874 65.5234C68.4781 65.3906 68.2691 65.3066 67.9605 65.2715V65.0547H71.7691V65.2715H71.6402C71.2964 65.2715 71.062 65.3145 70.937 65.4004C70.8472 65.459 70.8023 65.5449 70.8023 65.6582C70.8023 65.7285 70.8179 65.8125 70.8491 65.9102C70.8804 66.0039 70.9859 66.2598 71.1656 66.6777L72.8589 70.6328L74.4292 67.1113C74.6167 66.6855 74.732 66.4004 74.7749 66.2559C74.8179 66.1113 74.8394 65.9883 74.8394 65.8867C74.8394 65.7695 74.8081 65.666 74.7456 65.5762C74.6831 65.4863 74.5913 65.418 74.4702 65.3711C74.3023 65.3047 74.0796 65.2715 73.8023 65.2715V65.0547H76.4097ZM80.7039 70.7383H77.8973L77.5633 71.5117C77.4539 71.7695 77.3992 71.9824 77.3992 72.1504C77.3992 72.373 77.4891 72.5371 77.6687 72.6426C77.7742 72.7051 78.034 72.752 78.448 72.7832V73H75.8055V72.7832C76.0906 72.7402 76.325 72.623 76.5086 72.4316C76.6922 72.2363 76.9187 71.8359 77.1883 71.2305L80.0301 64.8906H80.1414L83.0066 71.4062C83.2801 72.0234 83.5047 72.4121 83.6805 72.5723C83.8133 72.6934 84.0008 72.7637 84.243 72.7832V73H80.3992V72.7832H80.5574C80.866 72.7832 81.0828 72.7402 81.2078 72.6543C81.2937 72.5918 81.3367 72.502 81.3367 72.3848C81.3367 72.3145 81.325 72.2422 81.3016 72.168C81.2937 72.1328 81.2352 71.9863 81.1258 71.7285L80.7039 70.7383ZM80.5047 70.3047L79.3211 67.5684L78.1023 70.3047H80.5047ZM88.0919 65.0547L92.0118 69.9824V66.5664C92.0118 66.0898 91.9434 65.7676 91.8067 65.5996C91.6192 65.373 91.3048 65.2637 90.8634 65.2715V65.0547H93.4884V65.2715C93.1524 65.3145 92.9259 65.3711 92.8087 65.4414C92.6954 65.5078 92.6055 65.6191 92.5391 65.7754C92.4766 65.9277 92.4454 66.1914 92.4454 66.5664V73.1816H92.2462L86.8731 66.5664V71.6172C86.8731 72.0742 86.9766 72.3828 87.1837 72.543C87.3946 72.7031 87.6348 72.7832 87.9044 72.7832H88.0919V73H85.2735V72.7832C85.711 72.7793 86.0157 72.6895 86.1876 72.5137C86.3595 72.3379 86.4454 72.0391 86.4454 71.6172V66.0098L86.2755 65.7988C86.1075 65.5879 85.9591 65.4492 85.8302 65.3828C85.7012 65.3164 85.5157 65.2793 85.2735 65.2715V65.0547H88.0919ZM102.775 64.873V67.6738H102.558C102.296 66.9082 101.904 66.3262 101.38 65.9277C100.857 65.5293 100.285 65.3301 99.6634 65.3301C99.0697 65.3301 98.5755 65.498 98.181 65.834C97.7865 66.166 97.5072 66.6309 97.3431 67.2285C97.1791 67.8262 97.097 68.4395 97.097 69.0684C97.097 69.8301 97.1869 70.498 97.3666 71.0723C97.5462 71.6465 97.8353 72.0684 98.2337 72.3379C98.6361 72.6074 99.1127 72.7422 99.6634 72.7422C99.8548 72.7422 100.05 72.7227 100.249 72.6836C100.452 72.6406 100.66 72.5801 100.87 72.502V70.8496C100.87 70.5371 100.849 70.3359 100.806 70.2461C100.763 70.1523 100.673 70.0684 100.536 69.9941C100.404 69.9199 100.242 69.8828 100.05 69.8828H99.8451V69.666H103.706V69.8828C103.413 69.9023 103.208 69.9434 103.091 70.0059C102.978 70.0645 102.89 70.1641 102.827 70.3047C102.792 70.3789 102.775 70.5605 102.775 70.8496V72.502C102.267 72.7285 101.738 72.8984 101.187 73.0117C100.64 73.1289 100.072 73.1875 99.4818 73.1875C98.7279 73.1875 98.1009 73.0859 97.6009 72.8828C97.1048 72.6758 96.6654 72.4062 96.2826 72.0742C95.9037 71.7383 95.6068 71.3613 95.392 70.9434C95.1185 70.4043 94.9818 69.8008 94.9818 69.1328C94.9818 67.9375 95.4017 66.9277 96.2416 66.1035C97.0814 65.2793 98.138 64.8672 99.4115 64.8672C99.806 64.8672 100.161 64.8984 100.478 64.9609C100.65 64.9922 100.927 65.082 101.31 65.2305C101.697 65.375 101.925 65.4473 101.995 65.4473C102.105 65.4473 102.206 65.4082 102.3 65.3301C102.394 65.248 102.48 65.0957 102.558 64.873H102.775ZM107.825 65.5117V68.7461H107.983C108.487 68.7461 108.852 68.5879 109.079 68.2715C109.305 67.9551 109.45 67.4883 109.512 66.8711H109.735V71.0312H109.512C109.465 70.5781 109.366 70.207 109.214 69.918C109.065 69.6289 108.891 69.4355 108.692 69.3379C108.493 69.2363 108.204 69.1855 107.825 69.1855V71.4238C107.825 71.8613 107.842 72.1289 107.878 72.2266C107.917 72.3242 107.987 72.4043 108.089 72.4668C108.19 72.5293 108.354 72.5605 108.581 72.5605H109.055C109.798 72.5605 110.391 72.3887 110.837 72.0449C111.286 71.7012 111.608 71.1777 111.803 70.4746H112.02L111.663 73H104.796V72.7832H105.059C105.29 72.7832 105.475 72.7422 105.616 72.6602C105.717 72.6055 105.796 72.5117 105.85 72.3789C105.893 72.2852 105.915 72.0391 105.915 71.6406V66.4141C105.915 66.0547 105.905 65.834 105.885 65.752C105.846 65.6152 105.774 65.5098 105.669 65.4355C105.52 65.3262 105.317 65.2715 105.059 65.2715H104.796V65.0547H111.446V67.4043H111.223C111.11 66.8301 110.95 66.418 110.743 66.168C110.54 65.918 110.251 65.7344 109.876 65.6172C109.657 65.5469 109.247 65.5117 108.645 65.5117H107.825ZM110.333 62.3418L108.393 64.375H107.889L108.569 62.3418H110.333ZM120.855 70.2109L120.557 73H113.502V72.7832H113.766C113.996 72.7832 114.182 72.7422 114.322 72.6602C114.424 72.6055 114.502 72.5117 114.557 72.3789C114.6 72.2852 114.621 72.0391 114.621 71.6406V66.4141C114.621 66.0078 114.6 65.7539 114.557 65.6523C114.514 65.5508 114.426 65.4629 114.293 65.3887C114.164 65.3105 113.988 65.2715 113.766 65.2715H113.502V65.0547H117.738V65.2715H117.393C117.162 65.2715 116.976 65.3125 116.836 65.3945C116.734 65.4492 116.654 65.543 116.596 65.6758C116.553 65.7695 116.531 66.0156 116.531 66.4141V71.4766C116.531 71.8828 116.555 72.1426 116.601 72.2559C116.648 72.3652 116.74 72.4473 116.877 72.502C116.975 72.5371 117.211 72.5547 117.586 72.5547H118.248C118.67 72.5547 119.021 72.4805 119.303 72.332C119.584 72.1836 119.826 71.9492 120.029 71.6289C120.236 71.3086 120.432 70.8359 120.615 70.2109H120.855ZM126.398 72.7832V73H122.243V72.7832H122.507C122.738 72.7832 122.923 72.7422 123.064 72.6602C123.165 72.6055 123.243 72.5117 123.298 72.3789C123.341 72.2852 123.363 72.0391 123.363 71.6406V66.4141C123.363 66.0078 123.341 65.7539 123.298 65.6523C123.255 65.5508 123.167 65.4629 123.034 65.3887C122.905 65.3105 122.73 65.2715 122.507 65.2715H122.243V65.0547H126.398V65.2715H126.134C125.904 65.2715 125.718 65.3125 125.577 65.3945C125.476 65.4492 125.396 65.543 125.337 65.6758C125.294 65.7695 125.273 66.0156 125.273 66.4141V71.6406C125.273 72.0469 125.294 72.3008 125.337 72.4023C125.384 72.5039 125.472 72.5938 125.601 72.6719C125.734 72.7461 125.911 72.7832 126.134 72.7832H126.398ZM135.409 64.873V67.627H135.18C135.008 66.9082 134.688 66.3574 134.219 65.9746C133.75 65.5918 133.219 65.4004 132.625 65.4004C132.129 65.4004 131.674 65.543 131.26 65.8281C130.846 66.1133 130.543 66.4863 130.352 66.9473C130.106 67.5371 129.983 68.1934 129.983 68.916C129.983 69.627 130.073 70.2754 130.252 70.8613C130.432 71.4434 130.713 71.8848 131.096 72.1855C131.479 72.4824 131.975 72.6309 132.584 72.6309C133.084 72.6309 133.541 72.5215 133.956 72.3027C134.374 72.084 134.813 71.707 135.274 71.1719V71.8574C134.829 72.3223 134.364 72.6602 133.879 72.8711C133.399 73.0781 132.836 73.1816 132.192 73.1816C131.344 73.1816 130.59 73.0117 129.93 72.6719C129.274 72.332 128.766 71.8438 128.407 71.207C128.051 70.5703 127.874 69.8926 127.874 69.1738C127.874 68.416 128.071 67.6973 128.465 67.0176C128.864 66.3379 129.399 65.8105 130.071 65.4355C130.747 65.0605 131.463 64.873 132.221 64.873C132.78 64.873 133.37 64.9941 133.991 65.2363C134.35 65.377 134.579 65.4473 134.676 65.4473C134.801 65.4473 134.909 65.4023 134.999 65.3125C135.092 65.2188 135.153 65.0723 135.18 64.873H135.409ZM141.783 70.7383H138.976L138.642 71.5117C138.533 71.7695 138.478 71.9824 138.478 72.1504C138.478 72.373 138.568 72.5371 138.748 72.6426C138.853 72.7051 139.113 72.752 139.527 72.7832V73H136.885V72.7832C137.17 72.7402 137.404 72.623 137.588 72.4316C137.771 72.2363 137.998 71.8359 138.267 71.2305L141.109 64.8906H141.22L144.086 71.4062C144.359 72.0234 144.584 72.4121 144.76 72.5723C144.892 72.6934 145.08 72.7637 145.322 72.7832V73H141.478V72.7832H141.636C141.945 72.7832 142.162 72.7402 142.287 72.6543C142.373 72.5918 142.416 72.502 142.416 72.3848C142.416 72.3145 142.404 72.2422 142.381 72.168C142.373 72.1328 142.314 71.9863 142.205 71.7285L141.783 70.7383ZM141.584 70.3047L140.4 67.5684L139.181 70.3047H141.584Z" fill="black"/>
</svg>
