<svg width="165" height="142" viewBox="0 0 165 142" fill="none" xmlns="http://www.w3.org/2000/svg">
<path d="M1.318 111.159C0.964667 111.159 0.717333 111.035 0.576 110.788C0.434667 110.541 0.364 110.276 0.364 109.993C0.399333 109.392 0.540667 109.057 0.788 108.986C1.03533 108.915 1.33567 108.88 1.689 108.88C2.643 108.88 3.36733 108.686 3.862 108.297C4.35667 107.908 4.74533 107.396 5.028 106.76C5.346 106.124 5.64633 105.47 5.929 104.799L15.204 82.857C15.5573 82.009 15.628 81.373 15.416 80.949C15.204 80.4897 14.8507 80.1717 14.356 79.995C13.8613 79.783 13.3137 79.624 12.713 79.518C12.183 79.412 11.8297 79.3237 11.653 79.253C11.4763 79.147 11.388 78.829 11.388 78.299C11.388 77.6983 11.6 77.3803 12.024 77.345C12.448 77.2743 12.9427 77.239 13.508 77.239C14.9567 77.239 16.1933 77.3803 17.218 77.663C18.2427 77.9457 19.126 78.4933 19.868 79.306C20.61 80.0833 21.299 81.267 21.935 82.857L30.839 104.799C31.0863 105.4 31.3513 106.018 31.634 106.654C31.9167 107.29 32.2877 107.82 32.747 108.244C33.2417 108.633 33.86 108.845 34.602 108.88C34.9907 108.88 35.291 108.915 35.503 108.986C35.7503 109.057 35.8917 109.392 35.927 109.993C35.927 110.276 35.8387 110.541 35.662 110.788C35.5207 111.035 35.291 111.159 34.973 111.159C33.8423 111.088 32.853 111.035 32.005 111C31.157 111 30.203 111 29.143 111C27.0583 111 24.8677 111.053 22.571 111.159C22.2177 111.159 21.9703 111.035 21.829 110.788C21.6877 110.541 21.617 110.276 21.617 109.993C21.6523 109.392 21.7937 109.057 22.041 108.986C22.2883 108.915 22.5887 108.88 22.942 108.88C24.6733 108.88 25.6097 108.562 25.751 107.926C25.9277 107.29 25.7687 106.248 25.274 104.799L23.472 100.4H10.381C9.851 101.743 9.46233 102.714 9.215 103.315C9.003 103.916 8.86167 104.304 8.791 104.481C8.75567 104.658 8.72033 104.764 8.685 104.799C8.29633 106 8.08433 106.901 8.049 107.502C8.049 108.067 8.33167 108.438 8.897 108.615C9.49767 108.792 10.487 108.88 11.865 108.88C12.2537 108.88 12.554 108.915 12.766 108.986C13.0133 109.057 13.1547 109.392 13.19 109.993C13.19 110.276 13.1017 110.541 12.925 110.788C12.7837 111.035 12.554 111.159 12.236 111.159C11.1053 111.088 10.116 111.035 9.268 111C8.45533 111 7.519 111 6.459 111C5.75233 111 5.15167 111 4.657 111C4.19767 111.035 3.72067 111.053 3.226 111.053C2.73133 111.088 2.09533 111.124 1.318 111.159ZM11.388 98.121H22.518L17.165 84.5H17.006L11.388 98.121ZM39.8639 111.159C39.5106 111.159 39.2632 111.035 39.1219 110.788C38.9806 110.541 38.9099 110.276 38.9099 109.993C38.9452 109.392 39.0866 109.057 39.3339 108.986C39.5812 108.915 39.8816 108.88 40.2349 108.88C41.3656 108.88 42.1606 108.686 42.6199 108.297C43.0792 107.873 43.3619 107.361 43.4679 106.76C43.6092 106.124 43.6799 105.47 43.6799 104.799V83.758C43.6799 83.0867 43.6092 82.4507 43.4679 81.85C43.3619 81.214 43.0792 80.7017 42.6199 80.313C42.1606 79.889 41.3656 79.677 40.2349 79.677C39.8816 79.677 39.5812 79.6417 39.3339 79.571C39.0866 79.5003 38.9452 79.1647 38.9099 78.564C38.9099 78.2813 38.9806 78.0163 39.1219 77.769C39.2632 77.5217 39.5106 77.398 39.8639 77.398C40.9946 77.4333 42.0546 77.4687 43.0439 77.504C44.0332 77.5393 45.0579 77.557 46.1179 77.557H53.5909C55.6402 77.557 57.2479 77.716 58.4139 78.034C59.6152 78.3167 60.6576 78.7407 61.5409 79.306C62.4596 79.9067 63.1839 80.737 63.7139 81.797C64.2439 82.8217 64.5089 83.9523 64.5089 85.189C64.5089 86.779 64.1379 88.1217 63.3959 89.217C62.6539 90.277 61.7176 91.125 60.5869 91.761C59.4916 92.3617 58.4139 92.7857 57.3539 93.033V93.192C59.2266 93.1567 60.8872 93.4923 62.3359 94.199C63.7846 94.9057 64.9329 95.842 65.7809 97.008C66.6289 98.174 67.0706 99.446 67.1059 100.824C67.1766 102.838 66.7526 104.499 65.8339 105.806C64.9152 107.113 63.7139 108.156 62.2299 108.933C60.7812 109.71 59.1912 110.258 57.4599 110.576C55.7639 110.894 54.1209 111.053 52.5309 111.053L46.1709 111C45.1109 111 44.0686 111 43.0439 111C42.0546 111.035 40.9946 111.088 39.8639 111.159ZM48.9269 92.132H51.1529C51.8596 92.132 52.6546 92.0967 53.5379 92.026C54.4212 91.9553 55.2692 91.7433 56.0819 91.39C56.8946 91.0013 57.5482 90.383 58.0429 89.535C58.5729 88.6517 58.8379 87.415 58.8379 85.825C58.8379 83.9523 58.3786 82.433 57.4599 81.267C56.5766 80.101 54.9689 79.518 52.6369 79.518H48.9269V92.132ZM52.7429 108.933C54.3329 108.898 55.7816 108.633 57.0889 108.138C58.3962 107.643 59.4386 106.813 60.2159 105.647C60.9932 104.481 61.3819 102.873 61.3819 100.824C61.2759 99.6933 60.8872 98.6333 60.2159 97.644C59.5799 96.6547 58.5199 95.842 57.0359 95.206C55.5872 94.57 53.6086 94.252 51.0999 94.252H48.9269V104.799C48.9269 106.566 49.1919 107.696 49.7219 108.191C50.2519 108.686 51.2589 108.933 52.7429 108.933ZM75.4443 111.159C75.091 111.159 74.8436 111.035 74.7023 110.788C74.561 110.541 74.4903 110.276 74.4903 109.993C74.5256 109.392 74.667 109.057 74.9143 108.986C75.1616 108.915 75.462 108.88 75.8153 108.88C76.946 108.88 77.741 108.686 78.2003 108.297C78.6596 107.873 78.9423 107.361 79.0483 106.76C79.1896 106.124 79.2603 105.47 79.2603 104.799V83.758C79.2603 83.0867 79.1896 82.4507 79.0483 81.85C78.9423 81.214 78.6596 80.7017 78.2003 80.313C77.741 79.889 76.946 79.677 75.8153 79.677C75.462 79.677 75.1616 79.6417 74.9143 79.571C74.667 79.5003 74.5256 79.1647 74.4903 78.564C74.4903 78.2813 74.561 78.0163 74.7023 77.769C74.8436 77.5217 75.091 77.398 75.4443 77.398C76.575 77.4333 77.635 77.4687 78.6243 77.504C79.6136 77.5393 80.6383 77.557 81.6983 77.557H89.1713C91.2206 77.557 92.8283 77.716 93.9943 78.034C95.1956 78.3167 96.238 78.7407 97.1213 79.306C98.04 79.9067 98.7643 80.737 99.2943 81.797C99.8243 82.8217 100.089 83.9523 100.089 85.189C100.089 86.779 99.7183 88.1217 98.9763 89.217C98.2343 90.277 97.298 91.125 96.1673 91.761C95.072 92.3617 93.9943 92.7857 92.9343 93.033V93.192C94.807 93.1567 96.4676 93.4923 97.9163 94.199C99.365 94.9057 100.513 95.842 101.361 97.008C102.209 98.174 102.651 99.446 102.686 100.824C102.757 102.838 102.333 104.499 101.414 105.806C100.496 107.113 99.2943 108.156 97.8103 108.933C96.3616 109.71 94.7716 110.258 93.0403 110.576C91.3443 110.894 89.7013 111.053 88.1113 111.053L81.7513 111C80.6913 111 79.649 111 78.6243 111C77.635 111.035 76.575 111.088 75.4443 111.159ZM84.5073 92.132H86.7333C87.44 92.132 88.235 92.0967 89.1183 92.026C90.0016 91.9553 90.8496 91.7433 91.6623 91.39C92.475 91.0013 93.1286 90.383 93.6233 89.535C94.1533 88.6517 94.4183 87.415 94.4183 85.825C94.4183 83.9523 93.959 82.433 93.0403 81.267C92.157 80.101 90.5493 79.518 88.2173 79.518H84.5073V92.132ZM88.3233 108.933C89.9133 108.898 91.362 108.633 92.6693 108.138C93.9766 107.643 95.019 106.813 95.7963 105.647C96.5736 104.481 96.9623 102.873 96.9623 100.824C96.8563 99.6933 96.4676 98.6333 95.7963 97.644C95.1603 96.6547 94.1003 95.842 92.6163 95.206C91.1676 94.57 89.189 94.252 86.6803 94.252H84.5073V104.799C84.5073 106.566 84.7723 107.696 85.3023 108.191C85.8323 108.686 86.8393 108.933 88.3233 108.933ZM108.163 111.159C107.809 111.159 107.562 111.035 107.421 110.788C107.279 110.541 107.209 110.276 107.209 109.993C107.244 109.392 107.385 109.057 107.633 108.986C107.88 108.915 108.18 108.88 108.534 108.88C109.488 108.88 110.212 108.686 110.707 108.297C111.201 107.908 111.59 107.396 111.873 106.76C112.191 106.124 112.491 105.47 112.774 104.799L122.049 82.857C122.402 82.009 122.473 81.373 122.261 80.949C122.049 80.4897 121.695 80.1717 121.201 79.995C120.706 79.783 120.158 79.624 119.558 79.518C119.028 79.412 118.674 79.3237 118.498 79.253C118.321 79.147 118.233 78.829 118.233 78.299C118.233 77.6983 118.445 77.3803 118.869 77.345C119.293 77.2743 119.787 77.239 120.353 77.239C121.801 77.239 123.038 77.3803 124.063 77.663C125.087 77.9457 125.971 78.4933 126.713 79.306C127.455 80.0833 128.144 81.267 128.78 82.857L137.684 104.799C137.931 105.4 138.196 106.018 138.479 106.654C138.761 107.29 139.132 107.82 139.592 108.244C140.086 108.633 140.705 108.845 141.447 108.88C141.835 108.88 142.136 108.915 142.348 108.986C142.595 109.057 142.736 109.392 142.772 109.993C142.772 110.276 142.683 110.541 142.507 110.788C142.365 111.035 142.136 111.159 141.818 111.159C140.687 111.088 139.698 111.035 138.85 111C138.002 111 137.048 111 135.988 111C133.903 111 131.712 111.053 129.416 111.159C129.062 111.159 128.815 111.035 128.674 110.788C128.532 110.541 128.462 110.276 128.462 109.993C128.497 109.392 128.638 109.057 128.886 108.986C129.133 108.915 129.433 108.88 129.787 108.88C131.518 108.88 132.454 108.562 132.596 107.926C132.772 107.29 132.613 106.248 132.119 104.799L130.317 100.4H117.226C116.696 101.743 116.307 102.714 116.06 103.315C115.848 103.916 115.706 104.304 115.636 104.481C115.6 104.658 115.565 104.764 115.53 104.799C115.141 106 114.929 106.901 114.894 107.502C114.894 108.067 115.176 108.438 115.742 108.615C116.342 108.792 117.332 108.88 118.71 108.88C119.098 108.88 119.399 108.915 119.611 108.986C119.858 109.057 119.999 109.392 120.035 109.993C120.035 110.276 119.946 110.541 119.77 110.788C119.628 111.035 119.399 111.159 119.081 111.159C117.95 111.088 116.961 111.035 116.113 111C115.3 111 114.364 111 113.304 111C112.597 111 111.996 111 111.502 111C111.042 111.035 110.565 111.053 110.071 111.053C109.576 111.088 108.94 111.124 108.163 111.159ZM118.233 98.121H129.363L124.01 84.5H123.851L118.233 98.121Z" fill="white"/>
<path d="M5.39453 135.783V136H1.24023V135.783H1.50391C1.73438 135.783 1.91992 135.742 2.06055 135.66C2.16211 135.605 2.24023 135.512 2.29492 135.379C2.33789 135.285 2.35938 135.039 2.35938 134.641V129.414C2.35938 129.008 2.33789 128.754 2.29492 128.652C2.25195 128.551 2.16406 128.463 2.03125 128.389C1.90234 128.311 1.72656 128.271 1.50391 128.271H1.24023V128.055H5.39453V128.271H5.13086C4.90039 128.271 4.71484 128.312 4.57422 128.395C4.47266 128.449 4.39258 128.543 4.33398 128.676C4.29102 128.77 4.26953 129.016 4.26953 129.414V134.641C4.26953 135.047 4.29102 135.301 4.33398 135.402C4.38086 135.504 4.46875 135.594 4.59766 135.672C4.73047 135.746 4.9082 135.783 5.13086 135.783H5.39453ZM14.6751 127.873V130.674H14.4583C14.1966 129.908 13.804 129.326 13.2805 128.928C12.7571 128.529 12.1848 128.33 11.5638 128.33C10.97 128.33 10.4759 128.498 10.0813 128.834C9.6868 129.166 9.4075 129.631 9.24344 130.229C9.07938 130.826 8.99734 131.439 8.99734 132.068C8.99734 132.83 9.08719 133.498 9.26688 134.072C9.44656 134.646 9.73563 135.068 10.1341 135.338C10.5364 135.607 11.013 135.742 11.5638 135.742C11.7552 135.742 11.9505 135.723 12.1497 135.684C12.3528 135.641 12.5598 135.58 12.7708 135.502V133.85C12.7708 133.537 12.7493 133.336 12.7063 133.246C12.6634 133.152 12.5735 133.068 12.4368 132.994C12.304 132.92 12.1419 132.883 11.9505 132.883H11.7454V132.666H15.6067V132.883C15.3138 132.902 15.1087 132.943 14.9915 133.006C14.8782 133.064 14.7903 133.164 14.7278 133.305C14.6927 133.379 14.6751 133.561 14.6751 133.85V135.502C14.1673 135.729 13.638 135.898 13.0872 136.012C12.5403 136.129 11.972 136.188 11.3821 136.188C10.6282 136.188 10.0013 136.086 9.50125 135.883C9.00516 135.676 8.5657 135.406 8.18289 135.074C7.80398 134.738 7.50711 134.361 7.29227 133.943C7.01883 133.404 6.88211 132.801 6.88211 132.133C6.88211 130.938 7.30203 129.928 8.14188 129.104C8.98172 128.279 10.0384 127.867 11.3118 127.867C11.7063 127.867 12.0618 127.898 12.3782 127.961C12.5501 127.992 12.8274 128.082 13.2102 128.23C13.597 128.375 13.8255 128.447 13.8958 128.447C14.0052 128.447 14.1067 128.408 14.2005 128.33C14.2942 128.248 14.3802 128.096 14.4583 127.873H14.6751ZM24.0318 133.211L23.733 136H16.6783V135.783H16.942C17.1724 135.783 17.358 135.742 17.4986 135.66C17.6002 135.605 17.6783 135.512 17.733 135.379C17.7759 135.285 17.7974 135.039 17.7974 134.641V129.414C17.7974 129.008 17.7759 128.754 17.733 128.652C17.69 128.551 17.6021 128.463 17.4693 128.389C17.3404 128.311 17.1646 128.271 16.942 128.271H16.6783V128.055H20.9146V128.271H20.5689C20.3384 128.271 20.1529 128.312 20.0123 128.395C19.9107 128.449 19.8306 128.543 19.772 128.676C19.7291 128.77 19.7076 129.016 19.7076 129.414V134.477C19.7076 134.883 19.731 135.143 19.7779 135.256C19.8248 135.365 19.9166 135.447 20.0533 135.502C20.1509 135.537 20.3873 135.555 20.7623 135.555H21.4244C21.8463 135.555 22.1978 135.48 22.4791 135.332C22.7603 135.184 23.0025 134.949 23.2056 134.629C23.4127 134.309 23.608 133.836 23.7916 133.211H24.0318ZM28.4491 128.512V131.746H28.6073C29.1112 131.746 29.4764 131.588 29.703 131.271C29.9295 130.955 30.0741 130.488 30.1366 129.871H30.3592V134.031H30.1366C30.0897 133.578 29.9901 133.207 29.8377 132.918C29.6893 132.629 29.5155 132.436 29.3162 132.338C29.117 132.236 28.828 132.186 28.4491 132.186V134.424C28.4491 134.861 28.4666 135.129 28.5018 135.227C28.5409 135.324 28.6112 135.404 28.7127 135.467C28.8143 135.529 28.9784 135.561 29.2049 135.561H29.6795C30.4217 135.561 31.0155 135.389 31.4608 135.045C31.91 134.701 32.2323 134.178 32.4276 133.475H32.6444L32.287 136H25.4198V135.783H25.6834C25.9139 135.783 26.0995 135.742 26.2401 135.66C26.3416 135.605 26.4198 135.512 26.4745 135.379C26.5174 135.285 26.5389 135.039 26.5389 134.641V129.414C26.5389 129.055 26.5291 128.834 26.5096 128.752C26.4705 128.615 26.3983 128.51 26.2928 128.436C26.1444 128.326 25.9412 128.271 25.6834 128.271H25.4198V128.055H32.0702V130.404H31.8475C31.7342 129.83 31.5741 129.418 31.367 129.168C31.1639 128.918 30.8748 128.734 30.4998 128.617C30.2811 128.547 29.8709 128.512 29.2694 128.512H28.4491ZM39.5402 127.873L39.6046 130.521H39.3644C39.2511 129.857 38.9718 129.324 38.5265 128.922C38.0851 128.516 37.6066 128.312 37.0909 128.312C36.6925 128.312 36.3761 128.42 36.1417 128.635C35.9113 128.846 35.796 129.09 35.796 129.367C35.796 129.543 35.837 129.699 35.9191 129.836C36.0323 130.02 36.214 130.201 36.464 130.381C36.6476 130.51 37.0714 130.738 37.7355 131.066C38.6652 131.523 39.2921 131.955 39.6163 132.361C39.9366 132.768 40.0968 133.232 40.0968 133.756C40.0968 134.42 39.837 134.992 39.3175 135.473C38.8019 135.949 38.1456 136.188 37.3488 136.188C37.0988 136.188 36.8624 136.162 36.6398 136.111C36.4171 136.061 36.1378 135.965 35.8019 135.824C35.6144 135.746 35.4601 135.707 35.339 135.707C35.2374 135.707 35.13 135.746 35.0167 135.824C34.9034 135.902 34.8116 136.021 34.7413 136.182H34.5245V133.182H34.7413C34.9132 134.025 35.2433 134.67 35.7316 135.115C36.2238 135.557 36.753 135.777 37.3195 135.777C37.757 135.777 38.1046 135.658 38.3624 135.42C38.6241 135.182 38.755 134.904 38.755 134.588C38.755 134.4 38.7042 134.219 38.6027 134.043C38.505 133.867 38.3546 133.701 38.1515 133.545C37.9484 133.385 37.589 133.178 37.0734 132.924C36.3507 132.568 35.8312 132.266 35.5148 132.016C35.1984 131.766 34.9542 131.486 34.7823 131.178C34.6144 130.869 34.5304 130.529 34.5304 130.158C34.5304 129.525 34.7628 128.986 35.2277 128.541C35.6925 128.096 36.2784 127.873 36.9855 127.873C37.2433 127.873 37.4933 127.904 37.7355 127.967C37.9191 128.014 38.1417 128.102 38.4034 128.23C38.6691 128.355 38.8546 128.418 38.9601 128.418C39.0616 128.418 39.1417 128.387 39.2003 128.324C39.2589 128.262 39.3136 128.111 39.3644 127.873H39.5402ZM45.6977 135.783V136H41.5434V135.783H41.807C42.0375 135.783 42.223 135.742 42.3637 135.66C42.4652 135.605 42.5434 135.512 42.598 135.379C42.641 135.285 42.6625 135.039 42.6625 134.641V129.414C42.6625 129.008 42.641 128.754 42.598 128.652C42.5551 128.551 42.4672 128.463 42.3344 128.389C42.2055 128.311 42.0297 128.271 41.807 128.271H41.5434V128.055H45.6977V128.271H45.434C45.2035 128.271 45.018 128.312 44.8773 128.395C44.7758 128.449 44.6957 128.543 44.6371 128.676C44.5941 128.77 44.5727 129.016 44.5727 129.414V134.641C44.5727 135.047 44.5941 135.301 44.6371 135.402C44.684 135.504 44.7719 135.594 44.9008 135.672C45.0336 135.746 45.2113 135.783 45.434 135.783H45.6977ZM51.6911 133.738H48.8845L48.5505 134.512C48.4411 134.77 48.3864 134.982 48.3864 135.15C48.3864 135.373 48.4762 135.537 48.6559 135.643C48.7614 135.705 49.0212 135.752 49.4352 135.783V136H46.7927V135.783C47.0778 135.74 47.3122 135.623 47.4958 135.432C47.6794 135.236 47.9059 134.836 48.1755 134.23L51.0173 127.891H51.1286L53.9938 134.406C54.2673 135.023 54.4919 135.412 54.6677 135.572C54.8005 135.693 54.988 135.764 55.2302 135.783V136H51.3864V135.783H51.5446C51.8532 135.783 52.07 135.74 52.195 135.654C52.2809 135.592 52.3239 135.502 52.3239 135.385C52.3239 135.314 52.3122 135.242 52.2887 135.168C52.2809 135.133 52.2223 134.986 52.113 134.729L51.6911 133.738ZM51.4919 133.305L50.3083 130.568L49.0895 133.305H51.4919ZM62.4123 128.512V131.746H62.5705C63.0745 131.746 63.4397 131.588 63.6663 131.271C63.8928 130.955 64.0373 130.488 64.0998 129.871H64.3225V134.031H64.0998C64.053 133.578 63.9534 133.207 63.801 132.918C63.6526 132.629 63.4788 132.436 63.2795 132.338C63.0803 132.236 62.7913 132.186 62.4123 132.186V134.424C62.4123 134.861 62.4299 135.129 62.4651 135.227C62.5041 135.324 62.5745 135.404 62.676 135.467C62.7776 135.529 62.9416 135.561 63.1682 135.561H63.6428C64.385 135.561 64.9788 135.389 65.4241 135.045C65.8733 134.701 66.1955 134.178 66.3909 133.475H66.6077L66.2502 136H59.383V135.783H59.6467C59.8772 135.783 60.0627 135.742 60.2034 135.66C60.3049 135.605 60.383 135.512 60.4377 135.379C60.4807 135.285 60.5022 135.039 60.5022 134.641V129.414C60.5022 129.055 60.4924 128.834 60.4729 128.752C60.4338 128.615 60.3616 128.51 60.2561 128.436C60.1077 128.326 59.9045 128.271 59.6467 128.271H59.383V128.055H66.0334V130.404H65.8108C65.6975 129.83 65.5373 129.418 65.3303 129.168C65.1272 128.918 64.8381 128.734 64.4631 128.617C64.2444 128.547 63.8342 128.512 63.2327 128.512H62.4123ZM76.4097 128.055V128.271C76.1206 128.318 75.8628 128.473 75.6363 128.734C75.4722 128.93 75.2281 129.389 74.9038 130.111L72.1675 136.182H71.9741L69.2495 129.865C68.9214 129.104 68.7007 128.656 68.5874 128.523C68.4781 128.391 68.2691 128.307 67.9605 128.271V128.055H71.7691V128.271H71.6402C71.2964 128.271 71.062 128.314 70.937 128.4C70.8472 128.459 70.8023 128.545 70.8023 128.658C70.8023 128.729 70.8179 128.812 70.8491 128.91C70.8804 129.004 70.9859 129.26 71.1656 129.678L72.8589 133.633L74.4292 130.111C74.6167 129.686 74.732 129.4 74.7749 129.256C74.8179 129.111 74.8394 128.988 74.8394 128.887C74.8394 128.77 74.8081 128.666 74.7456 128.576C74.6831 128.486 74.5913 128.418 74.4702 128.371C74.3023 128.305 74.0796 128.271 73.8023 128.271V128.055H76.4097ZM80.7039 133.738H77.8973L77.5633 134.512C77.4539 134.77 77.3992 134.982 77.3992 135.15C77.3992 135.373 77.4891 135.537 77.6687 135.643C77.7742 135.705 78.034 135.752 78.448 135.783V136H75.8055V135.783C76.0906 135.74 76.325 135.623 76.5086 135.432C76.6922 135.236 76.9187 134.836 77.1883 134.23L80.0301 127.891H80.1414L83.0066 134.406C83.2801 135.023 83.5047 135.412 83.6805 135.572C83.8133 135.693 84.0008 135.764 84.243 135.783V136H80.3992V135.783H80.5574C80.866 135.783 81.0828 135.74 81.2078 135.654C81.2937 135.592 81.3367 135.502 81.3367 135.385C81.3367 135.314 81.325 135.242 81.3016 135.168C81.2937 135.133 81.2352 134.986 81.1258 134.729L80.7039 133.738ZM80.5047 133.305L79.3211 130.568L78.1023 133.305H80.5047ZM88.0919 128.055L92.0118 132.982V129.566C92.0118 129.09 91.9434 128.768 91.8067 128.6C91.6192 128.373 91.3048 128.264 90.8634 128.271V128.055H93.4884V128.271C93.1524 128.314 92.9259 128.371 92.8087 128.441C92.6954 128.508 92.6055 128.619 92.5391 128.775C92.4766 128.928 92.4454 129.191 92.4454 129.566V136.182H92.2462L86.8731 129.566V134.617C86.8731 135.074 86.9766 135.383 87.1837 135.543C87.3946 135.703 87.6348 135.783 87.9044 135.783H88.0919V136H85.2735V135.783C85.711 135.779 86.0157 135.689 86.1876 135.514C86.3595 135.338 86.4454 135.039 86.4454 134.617V129.01L86.2755 128.799C86.1075 128.588 85.9591 128.449 85.8302 128.383C85.7012 128.316 85.5157 128.279 85.2735 128.271V128.055H88.0919ZM102.775 127.873V130.674H102.558C102.296 129.908 101.904 129.326 101.38 128.928C100.857 128.529 100.285 128.33 99.6634 128.33C99.0697 128.33 98.5755 128.498 98.181 128.834C97.7865 129.166 97.5072 129.631 97.3431 130.229C97.1791 130.826 97.097 131.439 97.097 132.068C97.097 132.83 97.1869 133.498 97.3666 134.072C97.5462 134.646 97.8353 135.068 98.2337 135.338C98.6361 135.607 99.1127 135.742 99.6634 135.742C99.8548 135.742 100.05 135.723 100.249 135.684C100.452 135.641 100.66 135.58 100.87 135.502V133.85C100.87 133.537 100.849 133.336 100.806 133.246C100.763 133.152 100.673 133.068 100.536 132.994C100.404 132.92 100.242 132.883 100.05 132.883H99.8451V132.666H103.706V132.883C103.413 132.902 103.208 132.943 103.091 133.006C102.978 133.064 102.89 133.164 102.827 133.305C102.792 133.379 102.775 133.561 102.775 133.85V135.502C102.267 135.729 101.738 135.898 101.187 136.012C100.64 136.129 100.072 136.188 99.4818 136.188C98.7279 136.188 98.1009 136.086 97.6009 135.883C97.1048 135.676 96.6654 135.406 96.2826 135.074C95.9037 134.738 95.6068 134.361 95.392 133.943C95.1185 133.404 94.9818 132.801 94.9818 132.133C94.9818 130.938 95.4017 129.928 96.2416 129.104C97.0814 128.279 98.138 127.867 99.4115 127.867C99.806 127.867 100.161 127.898 100.478 127.961C100.65 127.992 100.927 128.082 101.31 128.23C101.697 128.375 101.925 128.447 101.995 128.447C102.105 128.447 102.206 128.408 102.3 128.33C102.394 128.248 102.48 128.096 102.558 127.873H102.775ZM107.825 128.512V131.746H107.983C108.487 131.746 108.852 131.588 109.079 131.271C109.305 130.955 109.45 130.488 109.512 129.871H109.735V134.031H109.512C109.465 133.578 109.366 133.207 109.214 132.918C109.065 132.629 108.891 132.436 108.692 132.338C108.493 132.236 108.204 132.186 107.825 132.186V134.424C107.825 134.861 107.842 135.129 107.878 135.227C107.917 135.324 107.987 135.404 108.089 135.467C108.19 135.529 108.354 135.561 108.581 135.561H109.055C109.798 135.561 110.391 135.389 110.837 135.045C111.286 134.701 111.608 134.178 111.803 133.475H112.02L111.663 136H104.796V135.783H105.059C105.29 135.783 105.475 135.742 105.616 135.66C105.717 135.605 105.796 135.512 105.85 135.379C105.893 135.285 105.915 135.039 105.915 134.641V129.414C105.915 129.055 105.905 128.834 105.885 128.752C105.846 128.615 105.774 128.51 105.669 128.436C105.52 128.326 105.317 128.271 105.059 128.271H104.796V128.055H111.446V130.404H111.223C111.11 129.83 110.95 129.418 110.743 129.168C110.54 128.918 110.251 128.734 109.876 128.617C109.657 128.547 109.247 128.512 108.645 128.512H107.825ZM110.333 125.342L108.393 127.375H107.889L108.569 125.342H110.333ZM120.855 133.211L120.557 136H113.502V135.783H113.766C113.996 135.783 114.182 135.742 114.322 135.66C114.424 135.605 114.502 135.512 114.557 135.379C114.6 135.285 114.621 135.039 114.621 134.641V129.414C114.621 129.008 114.6 128.754 114.557 128.652C114.514 128.551 114.426 128.463 114.293 128.389C114.164 128.311 113.988 128.271 113.766 128.271H113.502V128.055H117.738V128.271H117.393C117.162 128.271 116.976 128.312 116.836 128.395C116.734 128.449 116.654 128.543 116.596 128.676C116.553 128.77 116.531 129.016 116.531 129.414V134.477C116.531 134.883 116.555 135.143 116.601 135.256C116.648 135.365 116.74 135.447 116.877 135.502C116.975 135.537 117.211 135.555 117.586 135.555H118.248C118.67 135.555 119.021 135.48 119.303 135.332C119.584 135.184 119.826 134.949 120.029 134.629C120.236 134.309 120.432 133.836 120.615 133.211H120.855ZM126.398 135.783V136H122.243V135.783H122.507C122.738 135.783 122.923 135.742 123.064 135.66C123.165 135.605 123.243 135.512 123.298 135.379C123.341 135.285 123.363 135.039 123.363 134.641V129.414C123.363 129.008 123.341 128.754 123.298 128.652C123.255 128.551 123.167 128.463 123.034 128.389C122.905 128.311 122.73 128.271 122.507 128.271H122.243V128.055H126.398V128.271H126.134C125.904 128.271 125.718 128.312 125.577 128.395C125.476 128.449 125.396 128.543 125.337 128.676C125.294 128.77 125.273 129.016 125.273 129.414V134.641C125.273 135.047 125.294 135.301 125.337 135.402C125.384 135.504 125.472 135.594 125.601 135.672C125.734 135.746 125.911 135.783 126.134 135.783H126.398ZM135.409 127.873V130.627H135.18C135.008 129.908 134.688 129.357 134.219 128.975C133.75 128.592 133.219 128.4 132.625 128.4C132.129 128.4 131.674 128.543 131.26 128.828C130.846 129.113 130.543 129.486 130.352 129.947C130.106 130.537 129.983 131.193 129.983 131.916C129.983 132.627 130.073 133.275 130.252 133.861C130.432 134.443 130.713 134.885 131.096 135.186C131.479 135.482 131.975 135.631 132.584 135.631C133.084 135.631 133.541 135.521 133.956 135.303C134.374 135.084 134.813 134.707 135.274 134.172V134.857C134.829 135.322 134.364 135.66 133.879 135.871C133.399 136.078 132.836 136.182 132.192 136.182C131.344 136.182 130.59 136.012 129.93 135.672C129.274 135.332 128.766 134.844 128.407 134.207C128.051 133.57 127.874 132.893 127.874 132.174C127.874 131.416 128.071 130.697 128.465 130.018C128.864 129.338 129.399 128.811 130.071 128.436C130.747 128.061 131.463 127.873 132.221 127.873C132.78 127.873 133.37 127.994 133.991 128.236C134.35 128.377 134.579 128.447 134.676 128.447C134.801 128.447 134.909 128.402 134.999 128.312C135.092 128.219 135.153 128.072 135.18 127.873H135.409ZM141.783 133.738H138.976L138.642 134.512C138.533 134.77 138.478 134.982 138.478 135.15C138.478 135.373 138.568 135.537 138.748 135.643C138.853 135.705 139.113 135.752 139.527 135.783V136H136.885V135.783C137.17 135.74 137.404 135.623 137.588 135.432C137.771 135.236 137.998 134.836 138.267 134.23L141.109 127.891H141.22L144.086 134.406C144.359 135.023 144.584 135.412 144.76 135.572C144.892 135.693 145.08 135.764 145.322 135.783V136H141.478V135.783H141.636C141.945 135.783 142.162 135.74 142.287 135.654C142.373 135.592 142.416 135.502 142.416 135.385C142.416 135.314 142.404 135.242 142.381 135.168C142.373 135.133 142.314 134.986 142.205 134.729L141.783 133.738ZM141.584 133.305L140.4 130.568L139.181 133.305H141.584Z" fill="white"/>
<path d="M152 141.5V24M164 70L84.5 1.5L13 58" stroke="white" stroke-width="2"/>
</svg>
