<svg width="143" height="35" viewBox="0 0 143 35" fill="none" xmlns="http://www.w3.org/2000/svg">
<path d="M1.318 34.159C0.964667 34.159 0.717333 34.0353 0.576 33.788C0.434667 33.5407 0.364 33.2757 0.364 32.993C0.399333 32.3923 0.540667 32.0567 0.788 31.986C1.03533 31.9153 1.33567 31.88 1.689 31.88C2.643 31.88 3.36733 31.6857 3.862 31.297C4.35667 30.9083 4.74533 30.396 5.028 29.76C5.346 29.124 5.64633 28.4703 5.929 27.799L15.204 5.857C15.5573 5.009 15.628 4.373 15.416 3.949C15.204 3.48966 14.8507 3.17166 14.356 2.995C13.8613 2.783 13.3137 2.624 12.713 2.518C12.183 2.412 11.8297 2.32367 11.653 2.253C11.4763 2.147 11.388 1.829 11.388 1.299C11.388 0.698332 11.6 0.380332 12.024 0.344997C12.448 0.274332 12.9427 0.238999 13.508 0.238999C14.9567 0.238999 16.1933 0.380332 17.218 0.663C18.2427 0.945665 19.126 1.49333 19.868 2.306C20.61 3.08333 21.299 4.267 21.935 5.857L30.839 27.799C31.0863 28.3997 31.3513 29.018 31.634 29.654C31.9167 30.29 32.2877 30.82 32.747 31.244C33.2417 31.6327 33.86 31.8447 34.602 31.88C34.9907 31.88 35.291 31.9153 35.503 31.986C35.7503 32.0567 35.8917 32.3923 35.927 32.993C35.927 33.2757 35.8387 33.5407 35.662 33.788C35.5207 34.0353 35.291 34.159 34.973 34.159C33.8423 34.0883 32.853 34.0353 32.005 34C31.157 34 30.203 34 29.143 34C27.0583 34 24.8677 34.053 22.571 34.159C22.2177 34.159 21.9703 34.0353 21.829 33.788C21.6877 33.5407 21.617 33.2757 21.617 32.993C21.6523 32.3923 21.7937 32.0567 22.041 31.986C22.2883 31.9153 22.5887 31.88 22.942 31.88C24.6733 31.88 25.6097 31.562 25.751 30.926C25.9277 30.29 25.7687 29.2477 25.274 27.799L23.472 23.4H10.381C9.851 24.7427 9.46233 25.7143 9.215 26.315C9.003 26.9157 8.86167 27.3043 8.791 27.481C8.75567 27.6577 8.72033 27.7637 8.685 27.799C8.29633 29.0003 8.08433 29.9013 8.049 30.502C8.049 31.0673 8.33167 31.4383 8.897 31.615C9.49767 31.7917 10.487 31.88 11.865 31.88C12.2537 31.88 12.554 31.9153 12.766 31.986C13.0133 32.0567 13.1547 32.3923 13.19 32.993C13.19 33.2757 13.1017 33.5407 12.925 33.788C12.7837 34.0353 12.554 34.159 12.236 34.159C11.1053 34.0883 10.116 34.0353 9.268 34C8.45533 34 7.519 34 6.459 34C5.75233 34 5.15167 34 4.657 34C4.19767 34.0353 3.72067 34.053 3.226 34.053C2.73133 34.0883 2.09533 34.1237 1.318 34.159ZM11.388 21.121H22.518L17.165 7.5H17.006L11.388 21.121ZM39.8639 34.159C39.5106 34.159 39.2632 34.0353 39.1219 33.788C38.9806 33.5407 38.9099 33.2757 38.9099 32.993C38.9452 32.3923 39.0866 32.0567 39.3339 31.986C39.5812 31.9153 39.8816 31.88 40.2349 31.88C41.3656 31.88 42.1606 31.6857 42.6199 31.297C43.0792 30.873 43.3619 30.3607 43.4679 29.76C43.6092 29.124 43.6799 28.4703 43.6799 27.799V6.758C43.6799 6.08666 43.6092 5.45066 43.4679 4.85C43.3619 4.214 43.0792 3.70167 42.6199 3.313C42.1606 2.889 41.3656 2.677 40.2349 2.677C39.8816 2.677 39.5812 2.64166 39.3339 2.571C39.0866 2.50033 38.9452 2.16466 38.9099 1.564C38.9099 1.28133 38.9806 1.01633 39.1219 0.768998C39.2632 0.521666 39.5106 0.398 39.8639 0.398C40.9946 0.433333 42.0546 0.468666 43.0439 0.503998C44.0332 0.539331 45.0579 0.556998 46.1179 0.556998H53.5909C55.6402 0.556998 57.2479 0.715998 58.4139 1.034C59.6152 1.31667 60.6576 1.74066 61.5409 2.306C62.4596 2.90666 63.1839 3.737 63.7139 4.797C64.2439 5.82167 64.5089 6.95233 64.5089 8.189C64.5089 9.779 64.1379 11.1217 63.3959 12.217C62.6539 13.277 61.7176 14.125 60.5869 14.761C59.4916 15.3617 58.4139 15.7857 57.3539 16.033V16.192C59.2266 16.1567 60.8872 16.4923 62.3359 17.199C63.7846 17.9057 64.9329 18.842 65.7809 20.008C66.6289 21.174 67.0706 22.446 67.1059 23.824C67.1766 25.838 66.7526 27.4987 65.8339 28.806C64.9152 30.1133 63.7139 31.1557 62.2299 31.933C60.7812 32.7103 59.1912 33.258 57.4599 33.576C55.7639 33.894 54.1209 34.053 52.5309 34.053L46.1709 34C45.1109 34 44.0686 34 43.0439 34C42.0546 34.0353 40.9946 34.0883 39.8639 34.159ZM48.9269 15.132H51.1529C51.8596 15.132 52.6546 15.0967 53.5379 15.026C54.4212 14.9553 55.2692 14.7433 56.0819 14.39C56.8946 14.0013 57.5482 13.383 58.0429 12.535C58.5729 11.6517 58.8379 10.415 58.8379 8.825C58.8379 6.95233 58.3786 5.433 57.4599 4.267C56.5766 3.101 54.9689 2.518 52.6369 2.518H48.9269V15.132ZM52.7429 31.933C54.3329 31.8977 55.7816 31.6327 57.0889 31.138C58.3962 30.6433 59.4386 29.813 60.2159 28.647C60.9932 27.481 61.3819 25.8733 61.3819 23.824C61.2759 22.6933 60.8872 21.6333 60.2159 20.644C59.5799 19.6547 58.5199 18.842 57.0359 18.206C55.5872 17.57 53.6086 17.252 51.0999 17.252H48.9269V27.799C48.9269 29.5657 49.1919 30.6963 49.7219 31.191C50.2519 31.6857 51.2589 31.933 52.7429 31.933ZM75.4443 34.159C75.091 34.159 74.8436 34.0353 74.7023 33.788C74.561 33.5407 74.4903 33.2757 74.4903 32.993C74.5256 32.3923 74.667 32.0567 74.9143 31.986C75.1616 31.9153 75.462 31.88 75.8153 31.88C76.946 31.88 77.741 31.6857 78.2003 31.297C78.6596 30.873 78.9423 30.3607 79.0483 29.76C79.1896 29.124 79.2603 28.4703 79.2603 27.799V6.758C79.2603 6.08666 79.1896 5.45066 79.0483 4.85C78.9423 4.214 78.6596 3.70167 78.2003 3.313C77.741 2.889 76.946 2.677 75.8153 2.677C75.462 2.677 75.1616 2.64166 74.9143 2.571C74.667 2.50033 74.5256 2.16466 74.4903 1.564C74.4903 1.28133 74.561 1.01633 74.7023 0.768998C74.8436 0.521666 75.091 0.398 75.4443 0.398C76.575 0.433333 77.635 0.468666 78.6243 0.503998C79.6136 0.539331 80.6383 0.556998 81.6983 0.556998H89.1713C91.2206 0.556998 92.8283 0.715998 93.9943 1.034C95.1956 1.31667 96.238 1.74066 97.1213 2.306C98.04 2.90666 98.7643 3.737 99.2943 4.797C99.8243 5.82167 100.089 6.95233 100.089 8.189C100.089 9.779 99.7183 11.1217 98.9763 12.217C98.2343 13.277 97.298 14.125 96.1673 14.761C95.072 15.3617 93.9943 15.7857 92.9343 16.033V16.192C94.807 16.1567 96.4676 16.4923 97.9163 17.199C99.365 17.9057 100.513 18.842 101.361 20.008C102.209 21.174 102.651 22.446 102.686 23.824C102.757 25.838 102.333 27.4987 101.414 28.806C100.496 30.1133 99.2943 31.1557 97.8103 31.933C96.3616 32.7103 94.7716 33.258 93.0403 33.576C91.3443 33.894 89.7013 34.053 88.1113 34.053L81.7513 34C80.6913 34 79.649 34 78.6243 34C77.635 34.0353 76.575 34.0883 75.4443 34.159ZM84.5073 15.132H86.7333C87.44 15.132 88.235 15.0967 89.1183 15.026C90.0016 14.9553 90.8496 14.7433 91.6623 14.39C92.475 14.0013 93.1286 13.383 93.6233 12.535C94.1533 11.6517 94.4183 10.415 94.4183 8.825C94.4183 6.95233 93.959 5.433 93.0403 4.267C92.157 3.101 90.5493 2.518 88.2173 2.518H84.5073V15.132ZM88.3233 31.933C89.9133 31.8977 91.362 31.6327 92.6693 31.138C93.9766 30.6433 95.019 29.813 95.7963 28.647C96.5736 27.481 96.9623 25.8733 96.9623 23.824C96.8563 22.6933 96.4676 21.6333 95.7963 20.644C95.1603 19.6547 94.1003 18.842 92.6163 18.206C91.1676 17.57 89.189 17.252 86.6803 17.252H84.5073V27.799C84.5073 29.5657 84.7723 30.6963 85.3023 31.191C85.8323 31.6857 86.8393 31.933 88.3233 31.933ZM108.163 34.159C107.809 34.159 107.562 34.0353 107.421 33.788C107.279 33.5407 107.209 33.2757 107.209 32.993C107.244 32.3923 107.385 32.0567 107.633 31.986C107.88 31.9153 108.18 31.88 108.534 31.88C109.488 31.88 110.212 31.6857 110.707 31.297C111.201 30.9083 111.59 30.396 111.873 29.76C112.191 29.124 112.491 28.4703 112.774 27.799L122.049 5.857C122.402 5.009 122.473 4.373 122.261 3.949C122.049 3.48966 121.695 3.17166 121.201 2.995C120.706 2.783 120.158 2.624 119.558 2.518C119.028 2.412 118.674 2.32367 118.498 2.253C118.321 2.147 118.233 1.829 118.233 1.299C118.233 0.698332 118.445 0.380332 118.869 0.344997C119.293 0.274332 119.787 0.238999 120.353 0.238999C121.801 0.238999 123.038 0.380332 124.063 0.663C125.087 0.945665 125.971 1.49333 126.713 2.306C127.455 3.08333 128.144 4.267 128.78 5.857L137.684 27.799C137.931 28.3997 138.196 29.018 138.479 29.654C138.761 30.29 139.132 30.82 139.592 31.244C140.086 31.6327 140.705 31.8447 141.447 31.88C141.835 31.88 142.136 31.9153 142.348 31.986C142.595 32.0567 142.736 32.3923 142.772 32.993C142.772 33.2757 142.683 33.5407 142.507 33.788C142.365 34.0353 142.136 34.159 141.818 34.159C140.687 34.0883 139.698 34.0353 138.85 34C138.002 34 137.048 34 135.988 34C133.903 34 131.712 34.053 129.416 34.159C129.062 34.159 128.815 34.0353 128.674 33.788C128.532 33.5407 128.462 33.2757 128.462 32.993C128.497 32.3923 128.638 32.0567 128.886 31.986C129.133 31.9153 129.433 31.88 129.787 31.88C131.518 31.88 132.454 31.562 132.596 30.926C132.772 30.29 132.613 29.2477 132.119 27.799L130.317 23.4H117.226C116.696 24.7427 116.307 25.7143 116.06 26.315C115.848 26.9157 115.706 27.3043 115.636 27.481C115.6 27.6577 115.565 27.7637 115.53 27.799C115.141 29.0003 114.929 29.9013 114.894 30.502C114.894 31.0673 115.176 31.4383 115.742 31.615C116.342 31.7917 117.332 31.88 118.71 31.88C119.098 31.88 119.399 31.9153 119.611 31.986C119.858 32.0567 119.999 32.3923 120.035 32.993C120.035 33.2757 119.946 33.5407 119.77 33.788C119.628 34.0353 119.399 34.159 119.081 34.159C117.95 34.0883 116.961 34.0353 116.113 34C115.3 34 114.364 34 113.304 34C112.597 34 111.996 34 111.502 34C111.042 34.0353 110.565 34.053 110.071 34.053C109.576 34.0883 108.94 34.1237 108.163 34.159ZM118.233 21.121H129.363L124.01 7.5H123.851L118.233 21.121Z" fill="#2D231D"/>
</svg>
